<?xml version="1.0" encoding="utf-8"?>
<!-- Generator: Adobe Illustrator 28.2.0, SVG Export Plug-In . SVG Version: 6.00 Build 0)  -->
<svg version="1.1" id="_x30_8e565a9-d273-44a5-8e62-fb3ff03af726"
	 xmlns="http://www.w3.org/2000/svg" xmlns:xlink="http://www.w3.org/1999/xlink" x="0px" y="0px" viewBox="0 0 960.2 727.8"
	 style="enable-background:new 0 0 960.2 727.8;" xml:space="preserve">
<style type="text/css">
	.st0{fill:#F5F5F5;}
	.st1{fill:#EDA943;}
	.st2{fill:none;stroke:#535461;stroke-width:2;stroke-miterlimit:10;}
	.st3{fill:#8C8585;}
	.st4{opacity:0.2;fill:#FFFFFF;enable-background:new    ;}
	.st5{opacity:0.2;fill:#3073B2;enable-background:new    ;}
	.st6{opacity:0.5;}
	.st7{fill:url(#SVGID_1_);}
	.st8{fill:#5A5773;}
	.st9{fill:#605D82;}
	.st10{opacity:0.1;enable-background:new    ;}
	.st11{opacity:0.1;}
	.st12{fill:#A1616A;}
	.st13{fill:#E1E7EF;}
	.st14{fill:#67647E;}
	.st15{fill:#4A4347;}
	.st16{fill:url(#SVGID_00000028285804883417389420000014130567276238046910_);}
	.st17{fill:#FFFFFF;}
	.st18{fill:#E0E0E0;}
	.st19{fill:#257F9A;}
	.st20{opacity:5.000000e-02;enable-background:new    ;}
	.st21{opacity:0.5;fill:#EDA943;enable-background:new    ;}
	.st22{opacity:0.4;fill:#EDA943;enable-background:new    ;}
	.st23{opacity:0.3;fill:#EDA943;enable-background:new    ;}
</style>
<ellipse class="st0" cx="516.6" cy="627.8" rx="350" ry="100"/>
<path class="st1" d="M849.6,238.8c0,0-62,62-27,154s-60,245-60,245s1-0.2,2.9-0.5c127.3-22.5,190.6-168.1,119.8-276.3
	C859,320.8,837.3,273.6,849.6,238.8z"/>
<path class="st2" d="M849.6,238.8c0,0-35,76,0,138s6,236-87,261"/>
<path class="st3" d="M960,489.6c0,0-70.8-11.3-77.2,52.1s-136,72.2-136,72.2s0.8,0.6,2.4,1.6c107,70.2,209.3,44.7,193.9-48.5
	C937.3,532.4,937.8,497.5,960,489.6z"/>
<path class="st4" d="M960,489.6c0,0-70.8-11.3-77.2,52.1s-136,72.2-136,72.2s0.8,0.6,2.4,1.6c107,70.2,209.3,44.7,193.9-48.5
	C937.3,532.4,937.8,497.5,960,489.6z"/>
<path class="st2" d="M960,489.6c0,0-54.9,12.1-50.4,62S828,661.4,746.8,613.9"/>
<path class="st5" d="M151.4,0.1c-8.1-0.3-16.3,0-23.9,2.8c-20.6,7.7-30.3,32.8-27.1,54.5s16.2,40.6,29.7,57.9s28.2,34.4,35.6,55
	c3.7,10.3,5.4,21.9,1.7,32.1c-5.8,15.9-23.3,24.7-40.1,26.6s-33.7-1.8-50.5-3c-7.1-0.5-14.3-0.6-21,1.8c-7.3,2.5-13.4,7.7-19,13.1
	C15,261.9-2.5,290.7,0.3,321c3.2,34.3,31.7,61.4,63,75.9c10.4,4.8,21.3,8.7,30.4,15.6c24,18.1,29.4,52.1,27,82.1
	c-2.4,30-10.5,60-6,89.8c5.3,34.6,28.9,65.8,60.7,80.5c28.4,13,63.8,12.2,89-6.2c12.3-9,21.5-21.4,29.6-34.3
	c12.2-19.4,22.1-40.2,29.5-61.9c3.5-10.3,6.8-21.4,15-28.6c5-4.4,11.5-6.9,17.9-8.8c19.3-5.8,39.7-7.4,59.2-12.5
	c19.5-5.1,39.1-14.7,49.7-31.8c15-24.3,8-55.4,8.1-84c0.1-65.2,39.1-123.5,53.5-187c4.7-20.8,6.5-43.7-4-62.2
	c-7.1-12.6-19.2-21.6-31.8-28.6c-27.8-15.4-59.4-22.3-90.5-29c-43.2-9.3-95.7-10.5-129.2-40.5C239.2,20.6,195.2,0.1,151.4,0.1z"/>
<g class="st6">
	
		<linearGradient id="SVGID_1_" gradientUnits="userSpaceOnUse" x1="224.8678" y1="287.6837" x2="439.0124" y2="287.6837" gradientTransform="matrix(1 0 0 -1 -120 641.8098)">
		<stop  offset="0" style="stop-color:#808080;stop-opacity:0.25"/>
		<stop  offset="0.54" style="stop-color:#808080;stop-opacity:0.12"/>
		<stop  offset="1" style="stop-color:#808080;stop-opacity:0.1"/>
	</linearGradient>
	<path class="st7" d="M308.1,252.3c0-15.7-2.5-31.3-7.3-46.3l-12-37.2c0-0.6,0-1.2,0-1.8c0.4-23.9-18.2-35.8-25.4-34.5
		c-7.3,1.3-27.7-8.9-27.7-8.9v0.3c-1.4-1.6-2.7-3.3-3.8-5.1c14.6-10.6,17.8-31,7.2-45.6c-0.1-0.2-0.3-0.4-0.5-0.6
		c2.2-1.7,3.9-3.9,4.8-6.5c1.7-4.7,0.4-10-2.3-14.2c-1.1-1.7-2.5-3.3-4-4.8c-2.3-2.3-4.8-4.3-7.5-6.1c-6.7-4.6-14-8.6-22-10
		c-1.4-0.3-2.8-0.3-4.2,0c-1.2,0.5-2.3,1.1-3.4,1.8c-5.5,3.1-12.3,1.8-18.6,1.4s-14,1.4-16,7.4c-0.6,1.8-0.6,3.8-1,5.7
		c-1,4.6-4.5,8.2-7.3,12s-4.8,9-2.5,13.2c0.8,1.4,2,2.7,2,4.3c0,1.1-0.7,2.2-1,3.3c-0.7,2.5,0.6,5,2.6,6.8c0.9,0.9,1.9,1.7,3,2.3
		c3.2,1.6,6.8,2.1,10,3.6c1.6,0.8,3.1,1.8,4.4,3c3.2,3.3,4.9,7.8,4.8,12.4l0.7,0.1c0,0.2,0,0.4,0,0.6c0.7,0.1,1.4,0.1,2.2,0.2
		c1.1,1.7,2.3,3.3,3.6,4.8c-0.2,0.9-0.5,1.7-0.8,2.6c-2.4,1.6-21.6,14.4-43.4,11.4c-23.3-3.3-36.7,98.7-36.7,98.7
		c-0.9,5.8-1.3,11.7-1.3,17.6c-0.1,15,3.1,34.6,20.6,31.7l9.3-3.1v50.5c0,0,1.3,13.8-3.3,23s14.7,5.9,14.7,5.9s0.7,0.8,2.1,2.1
		l-0.4,1.2l0.6,0.6c-2.5,8.7-6,17.1-10.2,25.1l0.5,0.3c-0.4,0.7-0.5,1-0.5,1s7.2,3.7,17.1,8.4c7.9,26.8,25.3,89,19.6,100.8l0.2,0.3
		l0,0c1.1,2.2,7,15.3,5.8,27.3c-1.1,10.7,13.8,59.4,19.3,77.1l-2.6,0.5l9.3,33.6l-2,21.7c0,0-11.3,30.3,15.3,24.3
		s19.3-30.3,19.3-30.3l0.7-49.4c0,0-2.6-1.4-5.7-2.8c-2.2-5.9-6.9-19.8-6.9-29.4c0-12.5-8.7-66.5-8.7-66.5v-0.1V498v-0.1l0-0.7v-0.1
		c0-0.7-0.1-1.6-0.2-2.7v-0.1c-1-14.6-4-64.2-1.8-90c1.9-1.3,3.9-2.5,6-3.6c6.5,16.4,23.2,60.7,22.1,79.3c-1.3,23-0.3,4.9,0,2
		c0.1-0.9,0.2,0.2,0.2,2.7c0,0.5,0,1,0,1.5s0,1.1,0,1.7s0,1.3,0,2c0,0.3,0,0.7,0,1.1c0,0.7,0,1.5,0,2.3c0,0.4,0,0.8,0,1.2
		c0,2,0,4.2-0.1,6.5c0,0.5,0,0.9,0,1.4c0,1.4,0,2.8-0.1,4.3c0,2-0.1,3.9-0.1,5.9c-0.1,4.5-0.2,9-0.4,13.3c0,0.5,0,0.9,0,1.4
		c0,0.9-0.1,1.8-0.1,2.7c0,0.9-0.1,1.8-0.1,2.6c0,0.8-0.1,1.7-0.1,2.5c0,0.9-0.1,1.8-0.2,2.7l-3.6-0.5l-0.8,8.3
		c-1.2,13.2,0.5,26.5,5,39c1.2,3.4,2.2,6.2,2.4,7.3c0.7,3.3,0,27,0,27s4,30.9,22.7,25c8.4-2.7,12.5-10.8,14.4-18.9
		c2.2-9.4,1.4-19.3-2.3-28.3c-2.6-6.7-5.4-16-3.5-23.2c3.3-12.5,3.3-30.3,3.3-30.3l-2.1-0.3c0.5-1,1-2,1.4-3c0,0-0.7-45.4,5.3-51.3
		c3.3-3.3,3-11.1,2-17.5c-1.4-9.3-1.8-18.7-1-28c0.4-4.8,1-9,1.7-10.5c1.8-3.5,3.5-38.6-4.3-55.4l1.6-0.5l-0.2-1.2l0.2-0.1
		c1.2,3.1,2.5,6.2,4,9.2c0.4,0.3,0.8,0.5,1.3,0.7c21.6-3.8,22.5-23.9,21.3-34.9c0.9,0.4,1.4,0.7,1.4,0.7l2-29
		c2-4.6,2.8-10.5,2.8-16.9C319.1,282.2,308.1,252.3,308.1,252.3z M284.3,334.7c-1.5-12.6-3.5-24.5-3.5-24.5l-10-35.5v-12.9
		l15.9,59.2L284.3,334.7z"/>
</g>
<path class="st8" d="M239.4,528.8l-0.7,8.1c-1.2,12.9,0.5,25.9,4.9,38.2c1.2,3.3,2.1,6.1,2.3,7.1c0.6,3.2,0,26.4,0,26.4
	s3.9,30.2,21.9,24.4c8.1-2.6,12-10.5,13.9-18.5c2.1-9.2,1.3-18.9-2.2-27.6c-2.6-6.5-5.2-15.7-3.3-22.7c3.2-12.2,3.2-29.6,3.2-29.6
	L239.4,528.8z"/>
<path class="st9" d="M220.1,389.3c0,0,25.1,61.1,23.8,83.6s-0.3,4.8,0,1.9c0.6-5.2,0,56-1.9,63c0,0,26.4,19.3,36.7-6.4
	c0,0-0.6-44.4,5.1-50.2c3.2-3.2,2.9-10.8,1.9-17.1c-1.4-9-1.7-18.2-1-27.3c0.4-4.7,0.9-8.8,1.6-10.2c1.9-3.9,3.9-47.6-7.7-59.8
	L220.1,389.3z"/>
<path class="st10" d="M245.2,537.8c1.9-7.1,2.5-68.2,1.9-63c-0.3,2.9-1.3,20.6,0-1.9s-23.8-83.6-23.8-83.6l56.1-21.6
	c-0.3-0.3-0.5-0.6-0.8-0.9l-58.5,22.5c0,0,25.1,61.1,23.8,83.6s-0.3,4.8,0,1.9c0.6-5.2,0,56-1.9,63c0,0,10.5,7.7,20.9,6.9
	C253.6,544,245.2,537.8,245.2,537.8z"/>
<path class="st8" d="M198.2,587.4l9,32.8l-1.9,21.2c0,0-10.9,29.6,14.8,23.8s18.6-29.6,18.6-29.6l0.6-48.2c0,0-10.3-5.8-14.8-5.1
	S198.2,587.4,198.2,587.4z"/>
<path class="st9" d="M153.9,373.9c0,0,29.6,95.8,22.5,110.6c0,0,7.1,14.2,5.8,27c-1.3,12.8,20.6,81.7,20.6,81.7l32.2-5.8
	c0,0-7.7-19.3-7.7-31.5s-8.4-65-8.4-65s-7.1-96.5,1.3-106.8L153.9,373.9z"/>
<g class="st11">
	<path d="M217.6,391.9c-5.3,21.8,0.6,102.2,0.6,102.2s8.4,52.7,8.4,65c0,9.3,4.5,22.8,6.6,28.6l1.7-0.3c0,0-7.7-19.3-7.7-31.5
		s-8.4-65-8.4-65S213.4,417.5,217.6,391.9z"/>
	<path d="M176.4,484.5l0.2,0.3c0-0.3,0.1-0.7,0.1-1C176.6,484,176.5,484.3,176.4,484.5z"/>
	<path d="M218.6,387.2c0.3-1.1,0.8-2.2,1.5-3.1l-66.2-10.3c0,0,0.4,1.2,1.1,3.5L218.6,387.2z"/>
</g>
<path class="st12" d="M308.2,339.1c0,0,9.6,36-19.3,41.2c-0.5-0.1-0.9-0.3-1.3-0.6c0,0-16.7-32.8-3.9-45.7L308.2,339.1z"/>
<path class="st12" d="M189.9,99.9c0,0,1.9,27-19.3,39.9s45,48.2,45,48.2l34.7-55.3c0,0-14.8,1.9-23.8-23.8L189.9,99.9z"/>
<path class="st10" d="M175.7,141.7c0,0,32.8,68.2,62.4,3.9l45.7,226.4c0,0-70.8,21.9-71.4,32.2S141,377.7,141,377.7
	s15.4-28.3,11.6-45.7S175.7,141.7,175.7,141.7z"/>
<path class="st13" d="M175.7,140.4c0,0,32.8,68.2,62.4,3.9l45.7,226.4c0,0-70.8,21.9-71.4,32.2S141,376.4,141,376.4
	s15.4-28.3,11.6-45.7S175.7,140.4,175.7,140.4z"/>
<path class="st8" d="M207.9,605.4c0,0-8.4-18.7,10.9-18.7s16.1,16.7,16.1,16.7L207.9,605.4z"/>
<path class="st8" d="M251.6,557.1c0,0-7.7-19.9,11.6-20.6s9.6,18,9.6,18L251.6,557.1z"/>
<path class="st10" d="M235.2,125.9c0,0,19.6,10,26.7,8.7s25.7,10.9,24.4,35.4l11.6,36.5c4.6,14.6,7,29.9,7,45.2l0,0
	c0,0,16.7,46.3,7.7,66.9l-1.9,28.3c0,0-14.8-8.4-30.2-5.8l3.9-23.1L267,252.3l-28.9-70.1L235.2,125.9z"/>
<path class="st14" d="M235.2,124.6c0,0,19.6,10,26.7,8.7s25.7,10.9,24.4,35.4l11.6,36.5c4.6,14.6,7,29.9,7,45.2l0,0
	c0,0,16.7,46.3,7.7,66.9l-1.9,28.3c0,0-14.8-8.4-30.2-5.8l3.9-23.1L267,251l-28.9-70.1L235.2,124.6z"/>
<path class="st10" d="M267.7,202.8v72.7l9.6,34.7c0,0,6.4,37.9,4.5,49.5s-32.8,14.1-41.2,4.5s-3.9-92-3.9-92l-1.6-120.5l1.3-3.9
	L267.7,202.8z"/>
<path class="st14" d="M269,199.6v72.7l9.6,34.7c0,0,6.4,37.9,4.5,49.5s-32.8,14.1-41.2,4.5s-3.9-92-3.9-92l-1.6-120.6L269,199.6z"/>
<path class="st10" d="M139.4,260l20.6,64l-9.6,27.3c0,0,45.7,48.2,74.6,25.1c0,0,3.2-98.4-3.2-121.6s-37.3-101-37.3-101l-6.4-20.5
	l-34.1,19.3L139.4,260z"/>
<path class="st14" d="M137.8,256.8v63c0,0,1.3,13.5-3.2,22.5s14.1,5.8,14.1,5.8s45.7,48.2,74.6,25.1c0,0,3.2-98.4-3.2-121.6
	s-37.3-101-37.3-101l-6.4-20.6l-34.1,19.3L137.8,256.8z"/>
<path class="st10" d="M187.6,118.9c0,0-19.6,14.5-42.1,11.2s-35.4,96.5-35.4,96.5s-8.4,51.5,18.6,47l59.8-19.9
	c0,0-12.9-13.5-10.9-30.9l-28.9,11.6L150,179L187.6,118.9z"/>
<path class="st10" d="M111.4,225.3c0,0-8.4,51.5,18.6,47l59.8-19.9c0,0-12.9-13.5-10.9-30.9L150,233L111.4,225.3z"/>
<path class="st12" d="M177.5,228.2c0,0,20.1-26.4,34.9-13.7s-29.5,35.9-29.5,35.9L177.5,228.2z"/>
<path class="st14" d="M187.6,117.6c0,0-19.6,14.5-42.1,11.2s-35.4,96.5-35.4,96.5s-8.4,51.5,18.6,47l59.8-19.9
	c0,0-12.9-13.5-10.9-30.9L148.7,233l1.3-55.3l32.8-27L187.6,117.6z"/>
<path class="st10" d="M227.2,110.2l-36.7-9c0,0,1.9,2.2-0.3,10.6c5.9,6.8,13.1,15.8,22.8,15.8c6.9,0,13.7-2.2,19.2-6.4
	C230.2,117.7,228.5,114,227.2,110.2z"/>
<circle class="st12" cx="212.4" cy="94.1" r="32.2"/>
<path class="st10" d="M224.6,80.1c7.5-1.3,15.7-4.6,18.2-11.7c1.6-4.6,0.4-9.8-2.2-13.8s-6.5-7.2-10.4-10
	c-6.4-4.5-13.5-8.4-21.3-9.8c-1.3-0.3-2.7-0.3-4.1,0c-1.2,0.5-2.3,1.1-3.3,1.8c-5.3,3.1-11.9,1.7-18,1.4s-13.5,1.4-15.4,7.2
	c-0.6,1.8-0.6,3.7-1,5.6c-1,4.5-4.4,8-7,11.8s-4.6,8.8-2.4,12.9c0.8,1.4,2,2.6,2,4.2c-0.2,1.1-0.5,2.2-1,3.2
	c-0.9,3.3,1.7,6.7,4.8,8.2s6.6,2.1,9.7,3.5c6,2.9,9.7,9.1,9.5,15.7c2.8,0.3,6.1,0.5,8.1-1.6c0.9-0.9,1.3-2.2,2.1-3.2
	c1-1.3,2.6-2.1,3.8-3.2c6.7-5.5,2-13.2,5.8-19.1c2-3.1,5.2-2.1,8.4-2.1C215.4,81.2,220,80.9,224.6,80.1z"/>
<path class="st15" d="M223.9,79.5c7.5-1.3,15.7-4.6,18.2-11.7c1.6-4.6,0.4-9.8-2.2-13.8s-6.5-7.2-10.4-10
	c-6.4-4.5-13.5-8.4-21.3-9.8c-1.3-0.3-2.7-0.3-4.1,0c-1.2,0.5-2.3,1.1-3.3,1.8c-5.3,3.1-11.9,1.7-18,1.4s-13.5,1.4-15.4,7.2
	c-0.6,1.8-0.6,3.7-1,5.6c-1,4.5-4.4,8-7,11.8s-4.6,8.8-2.4,12.9c0.8,1.4,2,2.6,2,4.2c-0.2,1.1-0.5,2.2-1,3.2
	c-0.9,3.3,1.7,6.7,4.8,8.2s6.6,2.1,9.7,3.5c6,2.9,9.7,9.1,9.5,15.8c2.8,0.3,6.1,0.5,8.1-1.6c0.9-0.9,1.3-2.2,2.1-3.2
	c1-1.3,2.6-2.1,3.8-3.2c6.7-5.5,2-13.2,5.8-19.1c2-3.1,5.2-2.1,8.4-2.1C214.7,80.6,219.4,80.3,223.9,79.5z"/>
<path class="st10" d="M262.9,187.7c0,0,7.1,36.7,3.9,50.8c-2,8.2-1.7,16.8,0.8,24.9"/>
<path class="st10" d="M148.6,203.1c0,0-3.1,24.4,2,29.6"/>
<path d="M328.1,504.3c0.8,0,1.5-0.7,1.5-1.5s-0.7-1.5-1.5-1.5s-1.5,0.7-1.5,1.5S327.3,504.3,328.1,504.3L328.1,504.3z"/>
<g class="st6">
	
		<linearGradient id="SVGID_00000011720873260641295650000013425544516004962947_" gradientUnits="userSpaceOnUse" x1="636.825" y1="-12.6302" x2="636.825" y2="523.0861" gradientTransform="matrix(1 0 0 -1 -120 641.8098)">
		<stop  offset="0" style="stop-color:#808080;stop-opacity:0.25"/>
		<stop  offset="0.54" style="stop-color:#808080;stop-opacity:0.12"/>
		<stop  offset="1" style="stop-color:#808080;stop-opacity:0.1"/>
	</linearGradient>
	<path style="fill:url(#SVGID_00000011720873260641295650000013425544516004962947_);" d="M790,329.6v-0.8L517.2,118.9
		c-0.4-0.3-0.8-0.3-1.2,0L243.1,328.7v325.2h0.5v0.5h546.9V329.2L790,329.6z"/>
</g>
<polygon class="st17" points="780.6,644.8 252.6,644.8 252.6,330.9 516.6,127.8 780.6,330.9 "/>
<polygon class="st18" points="761.6,626.2 271.6,626.2 271.6,334.8 516.6,146.4 761.6,334.8 "/>
<rect x="345.6" y="174.9" transform="matrix(0.9673 -0.2536 0.2536 0.9673 -77.8244 138.953)" class="st19" width="309" height="393"/>
<rect x="363.6" y="199.9" class="st0" width="309" height="393"/>
<polygon class="st20" points="255.1,331.4 519.1,488.4 255.1,645.3 "/>
<polygon class="st17" points="253.1,331.4 517.1,488.4 253.1,645.3 "/>
<polygon class="st20" points="779.1,331.4 515.1,488.4 779.1,645.3 "/>
<polygon class="st17" points="781.1,331.4 517.1,488.4 781.1,645.3 "/>
<polygon class="st20" points="253.1,640.3 517.1,434.4 781.1,640.3 "/>
<polygon class="st17" points="253.1,645.3 517.1,439.4 781.1,645.3 "/>
<path class="st2" d="M306.7,669.2c0,0-13.3-45,2.5-78.1c6.7-13.9,8.7-29.5,5.8-44.6c-1.5-7.2-3.6-14.2-6.3-20.9"/>
<g>
	<path class="st1" d="M318.5,504.6c0,5.5-10,21.5-10,21.5s-10-16-10-21.5c0-5.5,4.5-10,10-10S318.5,499.1,318.5,504.6z"/>
	<path class="st1" d="M335,535.1c-3,4.6-20.1,12.6-20.1,12.6s0.3-18.9,3.3-23.5c3.2-4.5,9.5-5.5,13.9-2.3
		C336.4,525,337.6,530.7,335,535.1z"/>
	<path class="st1" d="M334.2,587.4c-4.9,2.5-23.7,0.8-23.7,0.8s9.8-16.1,14.7-18.6c4.8-2.7,10.9-1,13.6,3.8c2.7,4.8,1,10.9-3.8,13.6
		C334.8,587.1,334.5,587.3,334.2,587.4L334.2,587.4z"/>
	<path class="st1" d="M324.8,626.8c-4.4,3.3-23.2,4.8-23.2,4.8s6.9-17.5,11.4-20.8c4.6-3.1,10.8-1.8,13.9,2.8
		C329.6,617.7,328.8,623.5,324.8,626.8z"/>
	<path class="st1" d="M293.9,548.8c4,3.8,22.4,7.8,22.4,7.8s-4.5-18.3-8.5-22.2c-4.1-3.7-10.5-3.3-14.1,0.9
		C290.3,539.3,290.4,545.1,293.9,548.8L293.9,548.8z"/>
	<path class="st1" d="M283.5,595c4.9,2.5,23.7,0.8,23.7,0.8s-9.8-16.1-14.7-18.6c-5-2.3-11,0-13.2,5
		C277.1,586.9,278.9,592.5,283.5,595L283.5,595z"/>
	<path class="st1" d="M279.5,641.3c4.4,3.3,23.2,4.8,23.2,4.8s-6.9-17.5-11.4-20.8c-4.3-3.5-10.6-2.9-14.1,1.4s-2.9,10.6,1.4,14.1
		C278.9,641,279.2,641.2,279.5,641.3z"/>
</g>
<rect x="381.6" y="217.9" class="st21" width="124" height="10"/>
<rect x="381.6" y="257.9" class="st21" width="268" height="10"/>
<rect x="381.6" y="283.9" class="st21" width="268" height="10"/>
<rect x="381.6" y="309.9" class="st22" width="268" height="10"/>
<rect x="381.6" y="335.9" class="st22" width="268" height="10"/>
<rect x="381.6" y="361.9" class="st23" width="153" height="10"/>
<rect x="381.6" y="387.9" class="st23" width="209" height="10"/>
</svg>
